<svg version="1.1" xmlns="http://www.w3.org/2000/svg" style="display: block;" viewBox="0 0 2048 2048" width="1024" height="1024" preserveAspectRatio="none">
<path transform="translate(0,0)" fill="rgb(255,255,255)" d="M 0 0 L 2048 0 L 2048 2048 L 0 2048 L 0 0 z"/>
<path transform="translate(0,0)" fill="rgb(237,184,53)" d="M 909.716 474.209 C 909.958 441.383 919.563 413.05 943.309 389.465 C 965.355 367.888 995.053 355.927 1025.9 356.201 C 1055.73 356.735 1084.13 369.08 1104.87 390.526 C 1126.82 413.372 1137.58 443.253 1137.12 474.722 C 1136.07 516.984 1116.86 553.033 1079.78 574.408 L 1190.07 786.104 C 1202.59 810.348 1215.24 834.521 1228.02 858.624 C 1230.62 863.577 1243.92 891.141 1247.66 892.42 C 1314.37 899.852 1375.76 909.977 1439.8 931.93 C 1451.14 914.161 1463.14 905.679 1484.77 906.171 C 1531.13 905.619 1546.81 944.291 1548.74 984.126 C 1577.76 1000.54 1598.07 1015.23 1621.73 1038.99 C 1631.52 1020.09 1656.88 984.989 1669.45 965.298 L 1727.15 875.597 C 1737.45 859.627 1749.77 839.179 1760.83 824.342 C 1759.24 814.135 1755.77 803.372 1754.58 793.332 C 1750.85 761.81 1752.92 727.99 1759.24 697.002 C 1762.74 682.202 1770.72 655.731 1782.8 645.744 C 1789.17 644.804 1802.15 645.102 1809 645.403 C 1837.71 662.154 1840.51 715.493 1840.08 744.975 C 1837.65 781.406 1833.12 812.108 1807.36 839.744 C 1799.74 877.972 1796.12 922.683 1789.37 961.711 C 1786.73 977.017 1785.92 991.493 1782.26 1007 L 1797.23 1007.16 C 1806.55 1029.97 1815.7 1052.86 1824.67 1075.81 C 1825.63 1086.98 1812.5 1185.32 1807.78 1192.15 L 1765.85 1251.93 L 1754.25 1252.1 C 1755.06 1266.67 1750.99 1287.69 1750.86 1303.12 C 1766.21 1319.28 1768.41 1335.59 1752.19 1352.5 C 1747.54 1356.49 1746.48 1357.22 1741.04 1360.02 C 1740.2 1367.02 1740.17 1375.27 1739.96 1382.41 C 1747.16 1381.97 1748.17 1381.36 1753.32 1386.25 C 1762.32 1394.81 1769.7 1405.04 1778.12 1414.32 C 1778.11 1430.9 1778.57 1450.39 1777.8 1466.74 C 1769.77 1475.27 1752.83 1497.94 1742.26 1497.93 L 1740.4 1497.93 C 1739.95 1497.92 1739.51 1497.92 1739.07 1497.91 L 1739.22 1505.79 C 1739.92 1511.6 1740.12 1515.06 1740.27 1520.87 C 1761.72 1536.33 1770.54 1566.74 1751.08 1587.55 C 1693.09 1648.27 1492.43 1664.01 1408.91 1673.71 C 1391.53 1675.72 1365.41 1678.79 1347.88 1679.19 C 1345.09 1679.28 1342.29 1679.25 1339.51 1679.1 C 1332.85 1679.61 1323.98 1680.56 1317.48 1680.69 C 1299.46 1682.1 1277.81 1684.01 1259.91 1684.33 C 1257.15 1684.96 1238.97 1685.73 1235.02 1685.9 C 1214.7 1686.72 1194.37 1687.42 1174.05 1688.01 C 1076.79 1691.1 979.452 1691.07 882.194 1687.91 C 850.808 1687.12 817.993 1684.32 787.523 1683.9 C 782.121 1684.04 776.717 1684.1 771.313 1684.08 C 734.759 1683.78 679.387 1679.55 643.487 1675.28 C 558.385 1665.15 356.799 1649.1 297.043 1588.43 C 295.061 1586.46 293.068 1584.39 291.534 1582.05 C 285.699 1573.24 283.706 1562.43 286.015 1552.12 C 288.677 1539.99 297.214 1527.76 307.726 1521.09 C 307.834 1515.53 307.775 1511.02 308.773 1505.5 L 308.914 1498.14 L 310.168 1470.19 C 301.107 1465.4 292.147 1460.42 283.294 1455.25 C 280.356 1460.83 275.955 1464.85 271.063 1468.79 C 268.721 1464.46 269.901 1425.86 269.551 1416.89 C 271.018 1411.25 288.165 1392.85 292.618 1387.17 C 297.046 1381.52 300.274 1382.06 306.945 1381.79 C 306.388 1376.64 306.404 1362.22 304.879 1358.8 C 299.446 1356.06 298.416 1355.44 293.829 1351.47 C 267.97 1325.91 296.11 1310.96 296.263 1300.04 C 295.748 1287.85 291.463 1262.66 293.44 1252.08 C 289.992 1252.02 285.641 1252.27 282.115 1252.37 C 268.413 1233.17 254.325 1212.32 239.943 1193.82 C 231.739 1179.33 226.893 1098.81 224.276 1077.48 C 223.714 1072.9 246.734 1018.5 249.845 1010.1 C 250.708 1007.77 253.68 1008 255.866 1007.75 C 258.653 1007.41 261.197 1006.99 263.953 1006.52 C 264.722 1004.87 241.28 851.086 239.546 840.772 C 215.786 813.02 210.563 789.44 207.593 752.54 C 207.884 750.43 208.232 748.571 208.616 746.487 C 213.635 743.677 263.373 740.421 272.136 739.919 C 270.848 725.732 269.456 710.907 266.553 696.975 L 289.13 696.908 C 296.096 737.821 298.64 782.06 285.776 822.082 L 382.592 971.976 C 394.262 989.989 416.171 1020.92 425.866 1038.47 C 432.319 1033.76 440.992 1025.38 447.634 1020.02 C 463.535 1007.18 480.729 994.294 498.806 984.721 C 501.911 943.587 514.923 907.009 562.799 905.657 C 585.143 905.879 595.495 914.56 607.928 932.143 C 667.037 913.294 740.117 897.177 802.26 891.76 C 818.952 858.011 837.98 822.953 855.55 789.44 L 967.515 574.748 C 929.888 551.316 911.39 518.449 909.716 474.209 z"/>
<path transform="translate(0,0)" fill="rgb(214,155,38)" d="M 909.716 474.209 C 909.958 441.383 919.563 413.05 943.309 389.465 C 965.355 367.888 995.053 355.927 1025.9 356.201 C 1055.73 356.735 1084.13 369.08 1104.87 390.526 C 1126.82 413.372 1137.58 443.253 1137.12 474.722 C 1136.07 516.984 1116.86 553.033 1079.78 574.408 L 1190.07 786.104 C 1202.59 810.348 1215.24 834.521 1228.02 858.624 C 1230.62 863.577 1243.92 891.141 1247.66 892.42 C 1314.37 899.852 1375.76 909.977 1439.8 931.93 C 1451.14 914.161 1463.14 905.679 1484.77 906.171 C 1531.13 905.619 1546.81 944.291 1548.74 984.126 C 1577.76 1000.54 1598.07 1015.23 1621.73 1038.99 C 1631.52 1020.09 1656.88 984.989 1669.45 965.298 L 1727.15 875.597 C 1737.45 859.627 1749.77 839.179 1760.83 824.342 C 1759.24 814.135 1755.77 803.372 1754.58 793.332 C 1750.85 761.81 1752.92 727.99 1759.24 697.002 C 1762.74 682.202 1770.72 655.731 1782.8 645.744 C 1789.17 644.804 1802.15 645.102 1809 645.403 C 1837.71 662.154 1840.51 715.493 1840.08 744.975 C 1837.65 781.406 1833.12 812.108 1807.36 839.744 C 1799.74 877.972 1796.12 922.683 1789.37 961.711 C 1786.73 977.017 1785.92 991.493 1782.26 1007 L 1797.23 1007.16 C 1806.55 1029.97 1815.7 1052.86 1824.67 1075.81 C 1825.63 1086.98 1812.5 1185.32 1807.78 1192.15 L 1765.85 1251.93 L 1754.25 1252.1 C 1755.06 1266.67 1750.99 1287.69 1750.86 1303.12 C 1746.17 1302.64 1733.2 1292.48 1727.21 1290.13 C 1645.75 1258.19 1553.12 1241.39 1466.69 1229.15 C 1362.77 1215.36 1258.22 1206.7 1153.45 1203.2 C 1124.91 1202.11 1096.37 1201.44 1067.82 1201.19 C 1058.85 1201.09 1030.62 1201.53 1023.12 1200.34 C 1022.83 1168.3 1022.82 1136.25 1023.08 1104.21 C 1011.39 1104.26 998.037 1104.64 986.508 1103.81 L 979.668 1103.55 C 982.465 1096.85 1000.38 1058.12 1003.78 1055.32 C 1012.84 1056.64 1033.65 1055.97 1043.37 1055.86 C 1051.88 1044.03 1060.79 1032.49 1069.36 1020.69 C 1069.05 1009.65 1068.84 998.61 1068.74 987.568 C 1066.28 968.295 1047.76 958.761 1044.46 945.111 C 1041.37 946.65 1008.42 946.024 1001.84 946.07 L 979.454 898.596 C 993.823 898.398 1008.19 898.483 1022.56 898.854 C 1023.45 890.725 1022.95 872.947 1022.94 863.916 L 1022.83 797.755 C 1022.48 728.446 1022.55 659.136 1023.04 589.828 C 999.636 588.161 988.575 586.109 967.515 574.748 C 929.888 551.316 911.39 518.449 909.716 474.209 z"/>
<path transform="translate(0,0)" fill="rgb(79,32,92)" d="M 1383.84 1133.54 C 1380.97 1134.53 1379.82 1135.18 1376.78 1134.89 C 1373.04 1131.59 1255.46 913.417 1246.54 893.774 L 1247.66 892.42 C 1314.37 899.852 1375.76 909.977 1439.8 931.93 C 1423.78 959.258 1420.07 987.414 1427.41 1018.58 C 1430.31 1030.9 1437.83 1046.7 1447.84 1054.85 C 1437.96 1092.47 1419.94 1117.8 1383.84 1133.54 z"/>
<path transform="translate(0,0)" fill="rgb(237,184,53)" d="M 909.716 474.209 C 909.958 441.383 919.563 413.05 943.309 389.465 C 965.355 367.888 995.053 355.927 1025.9 356.201 C 1055.73 356.735 1084.13 369.08 1104.87 390.526 C 1126.82 413.372 1137.58 443.253 1137.12 474.722 C 1110.28 475.391 1080.76 474.757 1053.62 474.776 C 1005.65 475.075 957.68 474.886 909.716 474.209 z"/>
<path transform="translate(0,0)" fill="rgb(79,32,92)" d="M 1548.74 984.126 C 1577.76 1000.54 1598.07 1015.23 1621.73 1038.99 L 1537.17 1166.65 C 1534.13 1165.99 1529.87 1161.65 1527.42 1159.31 C 1497.02 1130.2 1491.27 1104.43 1490.33 1064.6 C 1531.8 1060.94 1546.32 1019.82 1548.74 984.126 z"/>
<path transform="translate(0,0)" fill="rgb(237,184,53)" d="M 1760.83 824.342 C 1762.76 836.958 1775.52 834.838 1785.85 835.174 C 1779.09 843.094 1772.56 853.946 1766.72 862.755 C 1753.9 882.061 1741.93 901.932 1729.17 921.301 L 1592.85 1130.88 C 1582.29 1146.96 1571.66 1164.9 1561.03 1180.5 L 1537.17 1166.65 L 1621.73 1038.99 C 1631.52 1020.09 1656.88 984.989 1669.45 965.298 L 1727.15 875.597 C 1737.45 859.627 1749.77 839.179 1760.83 824.342 z"/>
<path transform="translate(0,0)" fill="rgb(17,96,52)" d="M 1115.16 951.934 C 1115.81 957.779 1115.79 964.059 1115.74 969.945 C 1115.48 996.624 1116.29 1023.59 1115.54 1050.23 C 1099.67 1068.36 1082.2 1085.75 1066.8 1103.44 C 1044.38 1103.99 1022.04 1103.27 999.622 1103.29 C 995.549 1103.29 990.495 1103.29 986.508 1103.81 L 979.668 1103.55 C 982.465 1096.85 1000.38 1058.12 1003.78 1055.32 C 1012.84 1056.64 1033.65 1055.97 1043.37 1055.86 C 1051.88 1044.03 1060.79 1032.49 1069.36 1020.69 C 1069.05 1009.65 1068.84 998.61 1068.74 987.568 C 1068.7 985.832 1068.44 983.614 1068.78 981.928 C 1069.69 977.424 1109.03 955.516 1115.16 951.934 z"/>
<path transform="translate(0,0)" fill="rgb(251,216,124)" d="M 1782.8 645.744 C 1789.17 644.804 1802.15 645.102 1809 645.403 C 1837.71 662.154 1840.51 715.493 1840.08 744.975 C 1834.8 745.04 1781.18 741.714 1777.01 740.831 C 1775.29 737.835 1775.8 736.431 1775.7 732.629 C 1777.1 720.485 1778.39 709.12 1780.47 697.064 L 1759.24 697.002 C 1762.74 682.202 1770.72 655.731 1782.8 645.744 z"/>
<path transform="translate(0,0)" fill="rgb(237,184,53)" d="M 1782.8 645.744 C 1789.24 646.103 1794.88 646.298 1801.32 646.311 C 1789.2 662.737 1784.82 677.355 1780.47 697.064 L 1759.24 697.002 C 1762.74 682.202 1770.72 655.731 1782.8 645.744 z"/>
<path transform="translate(0,0)" fill="rgb(237,184,53)" d="M 1793.6 842.486 C 1774.57 822.82 1771.49 759.064 1775.7 732.629 C 1775.8 736.431 1775.29 737.835 1777.01 740.831 C 1781.18 741.714 1834.8 745.04 1840.08 744.975 C 1837.65 781.406 1833.12 812.108 1807.36 839.744 L 1793.6 842.486 z"/>
<path transform="translate(0,0)" fill="rgb(104,165,224)" d="M 1782.26 1007 L 1797.23 1007.16 C 1806.55 1029.97 1815.7 1052.86 1824.67 1075.81 C 1818.71 1075.08 1812.12 1074.58 1806.08 1074 C 1799.86 1082.39 1793.99 1097.09 1790.63 1107.09 C 1780.56 1097.53 1767.94 1085.98 1757.48 1077.12 C 1763.47 1059.37 1771.95 1032.61 1779.15 1015.68 C 1779.97 1012.61 1781.1 1009.95 1782.26 1007 z"/>
<path transform="translate(0,0)" fill="rgb(26,97,174)" d="M 1782.26 1007 L 1797.23 1007.16 C 1806.55 1029.97 1815.7 1052.86 1824.67 1075.81 C 1818.71 1075.08 1812.12 1074.58 1806.08 1074 C 1797.34 1054.17 1789.18 1034.91 1779.15 1015.68 C 1779.97 1012.61 1781.1 1009.95 1782.26 1007 z"/>
<path transform="translate(0,0)" fill="rgb(37,128,209)" d="M 1790.63 1107.09 C 1793.99 1097.09 1799.86 1082.39 1806.08 1074 C 1812.12 1074.58 1818.71 1075.08 1824.67 1075.81 C 1825.63 1086.98 1812.5 1185.32 1807.78 1192.15 C 1802.25 1191.94 1797.69 1192.81 1792.23 1193.58 C 1787.89 1186.25 1784.96 1158.51 1784.91 1149.83 C 1785.33 1138.24 1788.79 1118.79 1790.63 1107.09 z"/>
<path transform="translate(0,0)" fill="rgb(29,112,194)" d="M 1784.91 1149.83 C 1784.96 1158.51 1787.89 1186.25 1792.23 1193.58 C 1797.69 1192.81 1802.25 1191.94 1807.78 1192.15 L 1765.85 1251.93 L 1754.25 1252.1 C 1751.49 1249.62 1752.44 1251.15 1751.77 1247.08 C 1749.27 1230.28 1744.7 1204.14 1743.89 1187.75 C 1754.6 1178.92 1765.61 1172.3 1776.84 1164.25 C 1784.81 1158.54 1783.58 1158.67 1784.91 1149.83 z"/>
<path transform="translate(0,0)" fill="rgb(24,78,147)" d="M 1792.23 1193.58 C 1797.69 1192.81 1802.25 1191.94 1807.78 1192.15 L 1765.85 1251.93 L 1754.25 1252.1 C 1751.49 1249.62 1752.44 1251.15 1751.77 1247.08 C 1764.36 1228.24 1778.03 1211.23 1792.23 1193.58 z"/>
<path transform="translate(0,0)" fill="rgb(58,186,126)" d="M 1022.56 898.854 C 1032.71 898.767 1056.64 897.582 1064.77 898.852 C 1061.14 910.496 1049.91 933.286 1044.46 945.111 C 1041.37 946.65 1008.42 946.024 1001.84 946.07 L 979.454 898.596 C 993.823 898.398 1008.19 898.483 1022.56 898.854 z"/>
<path transform="translate(0,0)" fill="rgb(24,78,147)" d="M 1757.48 1077.12 C 1767.94 1085.98 1780.56 1097.53 1790.63 1107.09 C 1788.79 1118.79 1785.33 1138.24 1784.91 1149.83 C 1783.58 1158.67 1784.81 1158.54 1776.84 1164.25 C 1765.61 1172.3 1754.6 1178.92 1743.89 1187.75 C 1744.56 1174.23 1747.15 1157.12 1748.88 1143.38 C 1751.6 1121.27 1754.47 1099.19 1757.48 1077.12 z"/>
<path transform="translate(0,0)" fill="rgb(19,149,86)" d="M 1064.77 898.852 C 1077.75 912.046 1103.93 938.156 1115.16 951.934 C 1109.03 955.516 1069.69 977.424 1068.78 981.928 C 1068.44 983.614 1068.7 985.832 1068.74 987.568 C 1066.28 968.295 1047.76 958.761 1044.46 945.111 C 1049.91 933.286 1061.14 910.496 1064.77 898.852 z"/>
<path transform="translate(0,0)" fill="rgb(237,184,53)" d="M 1447.84 1054.85 C 1454.04 1056.94 1456.73 1057.42 1463.12 1058.55 C 1451.84 1090.82 1444.05 1109.86 1411.15 1127.93 C 1404.92 1131.36 1390.72 1135.2 1383.84 1133.54 C 1419.94 1117.8 1437.96 1092.47 1447.84 1054.85 z"/>
<path transform="translate(0,0)" fill="rgb(233,42,50)" d="M 1455.83 959.042 C 1458.67 953.464 1472.8 933.183 1478.51 931.266 C 1485.16 932.384 1509.5 934.698 1512.7 938.793 C 1515.12 943.215 1527.76 964.751 1528.81 968.181 C 1528.71 979.903 1527.68 990.165 1526.15 1001.68 C 1525.61 1005.74 1523.85 1015.9 1523.75 1019.23 C 1519.63 1027.37 1512.42 1035.4 1506.49 1042.46 C 1505.31 1043.96 1503.41 1046.55 1502.2 1047.87 C 1491.28 1047.44 1479.99 1047.14 1469.12 1046.49 C 1463.38 1040.52 1454.44 1024.28 1450.82 1016.61 C 1452.86 999.925 1452.74 974.275 1455.83 959.042 z"/>
<path transform="translate(0,0)" fill="rgb(174,24,33)" d="M 1455.83 959.042 C 1464.4 962.848 1473.62 973.385 1480.58 977.232 C 1479.77 985.429 1478.89 996.032 1479.25 1004.26 C 1482.14 1008.54 1485.41 1013.67 1488.51 1017.7 C 1484.64 1024.42 1474.86 1041.43 1469.12 1046.49 C 1463.38 1040.52 1454.44 1024.28 1450.82 1016.61 C 1452.86 999.925 1452.74 974.275 1455.83 959.042 z"/>
<path transform="translate(0,0)" fill="rgb(221,34,44)" d="M 1510.29 1017.25 C 1512.72 1013.31 1513.41 1012.25 1516.45 1008.83 C 1519.68 1012.86 1521.22 1014.63 1523.75 1019.23 C 1519.63 1027.37 1512.42 1035.4 1506.49 1042.46 C 1505.31 1043.96 1503.41 1046.55 1502.2 1047.87 C 1491.28 1047.44 1479.99 1047.14 1469.12 1046.49 C 1474.86 1041.43 1484.64 1024.42 1488.51 1017.7 C 1494.25 1022.35 1504 1019.64 1510.29 1017.25 z"/>
<path transform="translate(0,0)" fill="rgb(193,28,42)" d="M 1510.29 1017.25 C 1512.72 1013.31 1513.41 1012.25 1516.45 1008.83 C 1519.68 1012.86 1521.22 1014.63 1523.75 1019.23 C 1519.63 1027.37 1512.42 1035.4 1506.49 1042.46 C 1503.65 1035.53 1508.32 1026.06 1510.29 1017.25 z"/>
<path transform="translate(0,0)" fill="rgb(221,34,44)" d="M 1455.83 959.042 C 1458.67 953.464 1472.8 933.183 1478.51 931.266 C 1482.93 939.666 1489.1 950.644 1492.7 959.182 C 1489.11 963.993 1482.82 971.896 1480.58 977.232 C 1473.62 973.385 1464.4 962.848 1455.83 959.042 z"/>
<path transform="translate(0,0)" fill="rgb(239,135,137)" d="M 1478.51 931.266 C 1485.16 932.384 1509.5 934.698 1512.7 938.793 C 1512.86 946.943 1512.81 955.096 1512.55 963.243 C 1507.88 962.855 1494.87 962.905 1492.7 959.182 C 1489.1 950.644 1482.93 939.666 1478.51 931.266 z"/>
<path transform="translate(0,0)" fill="rgb(221,34,44)" d="M 1512.7 938.793 C 1515.12 943.215 1527.76 964.751 1528.81 968.181 C 1525.18 976.03 1525.71 975.95 1520.8 983.274 C 1518.64 976.437 1515.42 969.85 1512.55 963.243 C 1512.81 955.096 1512.86 946.943 1512.7 938.793 z"/>
<path transform="translate(0,0)" fill="rgb(79,32,92)" d="M 1084.89 1403.63 C 1090.54 1407.2 1135.79 1406.71 1144.99 1406.99 C 1176.2 1408.15 1207.4 1409.67 1238.58 1411.56 C 1282.52 1414.14 1326.41 1417.67 1370.2 1422.15 C 1475.35 1431.99 1648.18 1451.87 1739.22 1505.79 C 1739.92 1511.6 1740.12 1515.06 1740.27 1520.87 C 1761.72 1536.33 1770.54 1566.74 1751.08 1587.55 C 1693.09 1648.27 1492.43 1664.01 1408.91 1673.71 C 1391.53 1675.72 1365.41 1678.79 1347.88 1679.19 C 1345.09 1679.28 1342.29 1679.25 1339.51 1679.1 C 1332.85 1679.61 1323.98 1680.56 1317.48 1680.69 C 1299.46 1682.1 1277.81 1684.01 1259.91 1684.33 C 1257.15 1684.96 1238.97 1685.73 1235.02 1685.9 C 1214.7 1686.72 1194.37 1687.42 1174.05 1688.01 C 1076.79 1691.1 979.452 1691.07 882.194 1687.91 C 850.808 1687.12 817.993 1684.32 787.523 1683.9 C 782.121 1684.04 776.717 1684.1 771.313 1684.08 C 734.759 1683.78 679.387 1679.55 643.487 1675.28 C 558.385 1665.15 356.799 1649.1 297.043 1588.43 C 295.061 1586.46 293.068 1584.39 291.534 1582.05 C 285.699 1573.24 283.706 1562.43 286.015 1552.12 C 288.677 1539.99 297.214 1527.76 307.726 1521.09 C 307.834 1515.53 307.775 1511.02 308.773 1505.5 C 319.479 1500.86 331.583 1491.05 344.834 1485.91 C 416.713 1458.07 504.953 1440.83 581.231 1432.33 C 654.394 1421.66 733.127 1415.51 806.875 1411.11 C 835.237 1409.52 863.615 1408.25 892.004 1407.27 C 902.612 1406.94 954.47 1406.91 961.821 1404.4 L 962.757 1404.95 L 1023.85 1404.93 C 1033.37 1404.88 1046.21 1405.17 1055.48 1404.72 C 1061.38 1404.84 1081.11 1405.97 1084.89 1403.63 z"/>
<path transform="translate(0,0)" fill="rgb(237,184,53)" d="M 1084.89 1403.63 C 1090.54 1407.2 1135.79 1406.71 1144.99 1406.99 C 1176.2 1408.15 1207.4 1409.67 1238.58 1411.56 C 1282.52 1414.14 1326.41 1417.67 1370.2 1422.15 C 1475.35 1431.99 1648.18 1451.87 1739.22 1505.79 C 1739.92 1511.6 1740.12 1515.06 1740.27 1520.87 C 1761.72 1536.33 1770.54 1566.74 1751.08 1587.55 C 1751 1577.01 1748.24 1567.15 1740.62 1559.68 C 1724.53 1543.87 1693.8 1531.62 1672.47 1524.66 C 1600.47 1501.2 1518.15 1488.52 1443.01 1479.56 C 1303.9 1463.34 1163.94 1455.46 1023.89 1455.96 C 1023.07 1462.12 1023.6 1471.72 1023.77 1478.23 C 1016.55 1478.24 999.918 1477.85 993.48 1478.81 C 867.248 1479.29 741.133 1486.53 615.675 1500.49 C 542.364 1508.84 466.581 1518.9 396.008 1540.71 C 374.666 1547.31 347.263 1555.08 331.209 1571.34 C 326.999 1575.6 323.718 1580.93 323.887 1587.11 C 324.069 1593.74 328.169 1598.62 332.921 1602.82 C 386.826 1650.42 627.152 1671.01 706.376 1677.92 C 723.199 1679.32 740.042 1680.46 756.9 1681.35 C 764.399 1681.8 780.487 1682.57 787.523 1683.9 C 782.121 1684.04 776.717 1684.1 771.313 1684.08 C 734.759 1683.78 679.387 1679.55 643.487 1675.28 C 558.385 1665.15 356.799 1649.1 297.043 1588.43 C 295.061 1586.46 293.068 1584.39 291.534 1582.05 C 285.699 1573.24 283.706 1562.43 286.015 1552.12 C 288.677 1539.99 297.214 1527.76 307.726 1521.09 C 307.834 1515.53 307.775 1511.02 308.773 1505.5 C 319.479 1500.86 331.583 1491.05 344.834 1485.91 C 416.713 1458.07 504.953 1440.83 581.231 1432.33 C 654.394 1421.66 733.127 1415.51 806.875 1411.11 C 835.237 1409.52 863.615 1408.25 892.004 1407.27 C 902.612 1406.94 954.47 1406.91 961.821 1404.4 L 962.757 1404.95 L 1023.85 1404.93 C 1033.37 1404.88 1046.21 1405.17 1055.48 1404.72 C 1061.38 1404.84 1081.11 1405.97 1084.89 1403.63 z"/>
<path transform="translate(0,0)" fill="rgb(251,216,124)" d="M 307.726 1521.09 C 387.527 1470.81 551.527 1451.22 646.842 1441.25 C 750.457 1430.41 854.536 1424.59 958.714 1423.81 C 966.834 1423.72 1020.22 1422.33 1023.89 1424.47 C 1023.79 1429.65 1023.41 1437.94 1023.86 1442.86 C 1023.6 1447.17 1023.27 1451.6 1023.12 1455.91 C 906.716 1455.46 790.357 1460.6 674.443 1471.29 C 616.103 1476.78 295.259 1508.91 296.761 1582.15 C 296.812 1584.24 296.906 1586.34 297.043 1588.43 C 295.061 1586.46 293.068 1584.39 291.534 1582.05 C 285.699 1573.24 283.706 1562.43 286.015 1552.12 C 288.677 1539.99 297.214 1527.76 307.726 1521.09 z"/>
<path transform="translate(0,0)" fill="rgb(214,155,38)" d="M 1084.89 1403.63 C 1090.54 1407.2 1135.79 1406.71 1144.99 1406.99 C 1176.2 1408.15 1207.4 1409.67 1238.58 1411.56 C 1282.52 1414.14 1326.41 1417.67 1370.2 1422.15 C 1475.35 1431.99 1648.18 1451.87 1739.22 1505.79 C 1739.92 1511.6 1740.12 1515.06 1740.27 1520.87 C 1717.91 1508.84 1705.09 1501.41 1680.19 1493.37 C 1634.09 1478.5 1584.67 1467.94 1536.91 1460.25 C 1405.33 1439.08 1265.5 1427.75 1132.26 1424.7 L 1065.59 1423.29 C 1055.37 1423.09 1033.54 1422.28 1024.19 1423.66 C 1023.39 1417.44 1023.74 1411.22 1023.85 1404.93 C 1033.37 1404.88 1046.21 1405.17 1055.48 1404.72 C 1061.38 1404.84 1081.11 1405.97 1084.89 1403.63 z"/>
<path transform="translate(0,0)" fill="rgb(214,155,38)" d="M 1023.89 1455.96 C 1163.94 1455.46 1303.9 1463.34 1443.01 1479.56 C 1518.15 1488.52 1600.47 1501.2 1672.47 1524.66 C 1693.8 1531.62 1724.53 1543.87 1740.62 1559.68 C 1748.24 1567.15 1751 1577.01 1751.08 1587.55 C 1693.09 1648.27 1492.43 1664.01 1408.91 1673.71 C 1391.53 1675.72 1365.41 1678.79 1347.88 1679.19 C 1345.09 1679.28 1342.29 1679.25 1339.51 1679.1 C 1345.5 1677.14 1363.21 1676.14 1370.14 1675.55 C 1384.74 1674.29 1399.33 1672.91 1413.91 1671.43 C 1479.6 1664.31 1663.2 1644.03 1712.15 1604.87 C 1717.44 1600.64 1722.34 1595.03 1722.77 1587.96 C 1723.14 1581.93 1719.98 1576.14 1715.89 1571.94 C 1696.55 1552.1 1651.68 1540.58 1624.83 1533.69 C 1562.47 1517.69 1498.28 1508.61 1434.41 1501.07 C 1321.38 1488.43 1207.83 1481.13 1094.11 1479.17 C 1060.59 1478.51 1027.01 1479.38 993.48 1478.81 C 999.918 1477.85 1016.55 1478.24 1023.77 1478.23 C 1023.6 1471.72 1023.07 1462.12 1023.89 1455.96 z"/>
<path transform="translate(0,0)" fill="rgb(237,184,53)" d="M 1088.63 1251.91 C 1096.55 1251.01 1111.52 1252.29 1119.99 1252.65 L 1175.34 1254.92 C 1275.31 1258.73 1375.01 1267.71 1474.05 1281.82 C 1539 1291.22 1604.59 1302.39 1667.22 1322.39 C 1684.06 1327.77 1734.59 1342.91 1741.04 1360.02 C 1740.2 1367.02 1740.17 1375.27 1739.96 1382.41 C 1747.16 1381.97 1748.17 1381.36 1753.32 1386.25 C 1762.32 1394.81 1769.7 1405.04 1778.12 1414.32 C 1778.11 1430.9 1778.57 1450.39 1777.8 1466.74 C 1769.77 1475.27 1752.83 1497.94 1742.26 1497.93 L 1740.4 1497.93 C 1739.95 1497.92 1739.51 1497.92 1739.07 1497.91 L 1739.22 1505.79 C 1648.18 1451.87 1475.35 1431.99 1370.2 1422.15 C 1326.41 1417.67 1282.52 1414.14 1238.58 1411.56 C 1207.4 1409.67 1176.2 1408.15 1144.99 1406.99 C 1135.79 1406.71 1090.54 1407.2 1084.89 1403.63 L 1120.92 1373.48 C 1119.91 1360.11 1121.33 1285.54 1119.2 1280.38 C 1112.23 1272.8 1097.4 1260.67 1088.63 1251.91 z"/>
<path transform="translate(0,0)" fill="rgb(17,96,52)" d="M 1739.96 1382.41 C 1747.16 1381.97 1748.17 1381.36 1753.32 1386.25 C 1762.32 1394.81 1769.7 1405.04 1778.12 1414.32 C 1778.11 1430.9 1778.57 1450.39 1777.8 1466.74 C 1769.77 1475.27 1752.83 1497.94 1742.26 1497.93 L 1740.4 1497.93 C 1739.95 1497.92 1739.51 1497.92 1739.07 1497.91 C 1737.49 1490.8 1737.19 1478.58 1736.84 1470.92 C 1736.47 1449.37 1736.66 1427.81 1737.4 1406.27 C 1738.01 1400.11 1738.44 1387.3 1739.96 1382.41 z"/>
<path transform="translate(0,0)" fill="rgb(17,114,63)" d="M 1778.12 1414.32 C 1778.11 1430.9 1778.57 1450.39 1777.8 1466.74 C 1769.77 1475.27 1752.83 1497.94 1742.26 1497.93 L 1740.4 1497.93 C 1739.95 1497.92 1739.51 1497.92 1739.07 1497.91 C 1737.49 1490.8 1737.19 1478.58 1736.84 1470.92 C 1746.61 1464.49 1752.24 1460.57 1762.72 1454.91 C 1762.69 1447.53 1762.25 1433.98 1763.76 1427.43 L 1763.67 1422.75 C 1767.52 1418.96 1773.2 1416.65 1778.12 1414.32 z"/>
<path transform="translate(0,0)" fill="rgb(58,186,126)" d="M 1778.12 1414.32 C 1778.11 1430.9 1778.57 1450.39 1777.8 1466.74 C 1771.42 1463.28 1768.96 1461.84 1763.55 1456.98 C 1763.8 1447.13 1763.87 1437.28 1763.76 1427.43 L 1763.67 1422.75 C 1767.52 1418.96 1773.2 1416.65 1778.12 1414.32 z"/>
<path transform="translate(0,0)" fill="rgb(19,149,86)" d="M 1739.96 1382.41 C 1747.16 1381.97 1748.17 1381.36 1753.32 1386.25 C 1762.32 1394.81 1769.7 1405.04 1778.12 1414.32 C 1773.2 1416.65 1767.52 1418.96 1763.67 1422.75 C 1760.94 1421.58 1743.14 1409.41 1737.4 1406.27 C 1738.01 1400.11 1738.44 1387.3 1739.96 1382.41 z"/>
<path transform="translate(0,0)" fill="rgb(22,168,100)" d="M 1296.26 1310.68 C 1302.67 1305.48 1321.46 1284.05 1326.91 1283.31 C 1349.71 1287.83 1365.84 1285.78 1382.67 1301.86 C 1375.58 1309.26 1372.15 1315.15 1366.11 1323.3 C 1369.56 1329.73 1372.05 1336.64 1373.51 1343.8 C 1371.67 1349.97 1368.97 1359.57 1364.75 1364.42 C 1371.24 1369.89 1377.77 1379.28 1383.16 1386.25 C 1363.18 1402.78 1347.8 1400.13 1321.36 1402.25 L 1295 1372.73 C 1291.33 1368.69 1293.01 1314.37 1296.26 1310.68 z"/>
<path transform="translate(0,0)" fill="rgb(17,114,63)" d="M 1295 1372.73 C 1304.73 1366.37 1318.09 1358.25 1328.4 1352.46 C 1333.08 1357.75 1339.46 1361.39 1344.85 1367.17 C 1351.42 1366.74 1358.4 1366.29 1364.75 1364.42 C 1371.24 1369.89 1377.77 1379.28 1383.16 1386.25 C 1363.18 1402.78 1347.8 1400.13 1321.36 1402.25 L 1295 1372.73 z"/>
<path transform="translate(0,0)" fill="rgb(17,96,52)" d="M 1295 1372.73 C 1291.33 1368.69 1293.01 1314.37 1296.26 1310.68 C 1304.61 1315.68 1321.71 1326.53 1329.98 1330.4 C 1329.71 1335.05 1329.19 1348.58 1328.4 1352.46 C 1318.09 1358.25 1304.73 1366.37 1295 1372.73 z"/>
<path transform="translate(0,0)" fill="rgb(134,206,163)" d="M 1326.91 1283.31 C 1349.71 1287.83 1365.84 1285.78 1382.67 1301.86 C 1375.58 1309.26 1372.15 1315.15 1366.11 1323.3 C 1359.37 1320.72 1352.6 1319.56 1345.53 1318.09 C 1339.62 1306.09 1333.81 1294.78 1326.91 1283.31 z"/>
<path transform="translate(0,0)" fill="rgb(37,128,209)" d="M 1568.02 1352.7 C 1575.66 1343.94 1583.37 1335.26 1591.17 1326.65 C 1600.42 1328.53 1622.55 1330.61 1626.94 1338.18 C 1645.45 1367.21 1643.12 1369.39 1640.74 1403.17 C 1640.71 1413.37 1632.83 1421.75 1626.65 1430.24 C 1624.56 1434.02 1624.16 1434.64 1621.33 1437.91 C 1612.4 1437.98 1599.49 1437.69 1590.89 1438.32 L 1588.04 1438 C 1583.6 1435.19 1571.86 1417.87 1567.94 1412.33 C 1564.48 1408.39 1565.2 1357.54 1568.02 1352.7 z"/>
<path transform="translate(0,0)" fill="rgb(24,78,147)" d="M 1568.02 1352.7 C 1577.38 1359.42 1592.23 1366.31 1600.27 1373.31 C 1598.73 1379.5 1598.8 1385.99 1599.37 1392.33 C 1591.54 1398.13 1570.91 1407.41 1567.94 1412.33 C 1564.48 1408.39 1565.2 1357.54 1568.02 1352.7 z"/>
<path transform="translate(0,0)" fill="rgb(26,97,174)" d="M 1599.37 1392.33 C 1602.36 1398.23 1605.28 1402.92 1608.76 1408.54 C 1603.57 1419.18 1597.37 1424.72 1590.89 1438.32 L 1588.04 1438 C 1583.6 1435.19 1571.86 1417.87 1567.94 1412.33 C 1570.91 1407.41 1591.54 1398.13 1599.37 1392.33 z"/>
<path transform="translate(0,0)" fill="rgb(29,112,194)" d="M 1568.02 1352.7 C 1575.66 1343.94 1583.37 1335.26 1591.17 1326.65 C 1597.43 1335.45 1605.49 1349.44 1610.6 1359.19 C 1606.11 1364.63 1604 1367.33 1600.27 1373.31 C 1592.23 1366.31 1577.38 1359.42 1568.02 1352.7 z"/>
<path transform="translate(0,0)" fill="rgb(29,112,194)" d="M 1608.76 1408.54 C 1616.64 1410.82 1620.42 1410.03 1628.26 1408.53 C 1626.99 1414.24 1626.23 1424.4 1626.65 1430.24 C 1624.56 1434.02 1624.16 1434.64 1621.33 1437.91 C 1612.4 1437.98 1599.49 1437.69 1590.89 1438.32 C 1597.37 1424.72 1603.57 1419.18 1608.76 1408.54 z"/>
<path transform="translate(0,0)" fill="rgb(104,165,224)" d="M 1591.17 1326.65 C 1600.42 1328.53 1622.55 1330.61 1626.94 1338.18 C 1627.23 1345.88 1627.61 1353.64 1627.53 1361.34 C 1621.96 1360.83 1616 1360.5 1610.6 1359.19 C 1605.49 1349.44 1597.43 1335.45 1591.17 1326.65 z"/>
<path transform="translate(0,0)" fill="rgb(26,97,174)" d="M 1635.03 1394.96 C 1637.27 1398.85 1637.8 1399.9 1640.74 1403.17 C 1640.71 1413.37 1632.83 1421.75 1626.65 1430.24 C 1626.23 1424.4 1626.99 1414.24 1628.26 1408.53 C 1629.92 1404.45 1632.94 1399.01 1635.03 1394.96 z"/>
<path transform="translate(0,0)" fill="rgb(58,186,126)" d="M 1382.67 1301.86 C 1388.7 1310.4 1396.78 1333.63 1397.47 1344.03 C 1389.48 1343.99 1381.5 1343.91 1373.51 1343.8 C 1372.05 1336.64 1369.56 1329.73 1366.11 1323.3 C 1372.15 1315.15 1375.58 1309.26 1382.67 1301.86 z"/>
<path transform="translate(0,0)" fill="rgb(19,149,86)" d="M 1373.51 1343.8 C 1381.5 1343.91 1389.48 1343.99 1397.47 1344.03 C 1395.43 1355.9 1389.42 1375.93 1383.16 1386.25 C 1377.77 1379.28 1371.24 1369.89 1364.75 1364.42 C 1368.97 1359.57 1371.67 1349.97 1373.51 1343.8 z"/>
<path transform="translate(0,0)" fill="rgb(251,216,124)" d="M 1023.96 1248.29 C 1032.71 1248.39 1080.22 1247.52 1084.46 1248.71 L 1088.63 1251.91 C 1097.4 1260.67 1112.23 1272.8 1119.2 1280.38 C 1121.33 1285.54 1119.91 1360.11 1120.92 1373.48 L 1084.89 1403.63 C 1081.11 1405.97 1061.38 1404.84 1055.48 1404.72 C 1046.21 1405.17 1033.37 1404.88 1023.85 1404.93 L 962.757 1404.95 L 961.821 1404.4 C 954.47 1406.91 902.612 1406.94 892.004 1407.27 C 863.615 1408.25 835.237 1409.52 806.875 1411.11 C 733.127 1415.51 654.394 1421.66 581.231 1432.33 C 580.284 1413.6 580.856 1388.39 580.875 1369.46 C 580.754 1339.41 580.863 1309.37 581.201 1279.33 C 600.555 1275.25 641.169 1271.9 661.69 1269.53 C 760.551 1258.09 860.482 1255.26 959.805 1250.66 L 963.861 1248.29 C 977.79 1247 1008.63 1248.09 1023.96 1248.29 z"/>
<path transform="translate(0,0)" fill="rgb(233,42,50)" d="M 1023.96 1248.29 C 1032.71 1248.39 1080.22 1247.52 1084.46 1248.71 L 1088.63 1251.91 C 1097.4 1260.67 1112.23 1272.8 1119.2 1280.38 C 1121.33 1285.54 1119.91 1360.11 1120.92 1373.48 L 1084.89 1403.63 C 1081.11 1405.97 1061.38 1404.84 1055.48 1404.72 C 1046.21 1405.17 1033.37 1404.88 1023.85 1404.93 L 962.757 1404.95 L 961.821 1404.4 C 950.434 1394.19 938.471 1383.75 927.624 1373.04 C 943.163 1362.4 958.476 1351.42 973.552 1340.13 C 972.372 1335 972.908 1314.69 972.51 1307.58 L 971.876 1307.05 C 963.475 1300.29 936.877 1283.63 926.978 1279.69 C 935.256 1274.19 952.196 1257.81 959.805 1250.66 L 963.861 1248.29 C 977.79 1247 1008.63 1248.09 1023.96 1248.29 z"/>
<path transform="translate(0,0)" fill="rgb(174,24,33)" d="M 973.552 1340.13 C 979.068 1346.35 996.352 1360.39 1004.96 1362.14 C 1005.36 1362.22 1008.9 1362.14 1009.61 1362.12 L 1009.87 1362.97 C 1021.94 1363.28 1034.01 1363.37 1046.07 1363.24 C 1057.37 1374.67 1073.39 1391.16 1083.09 1404.17 C 1074.7 1404.1 1063.58 1403.65 1055.48 1404.72 C 1046.21 1405.17 1033.37 1404.88 1023.85 1404.93 L 962.757 1404.95 L 961.821 1404.4 C 950.434 1394.19 938.471 1383.75 927.624 1373.04 C 943.163 1362.4 958.476 1351.42 973.552 1340.13 z"/>
<path transform="translate(0,0)" fill="rgb(221,34,44)" d="M 973.552 1340.13 C 979.068 1346.35 996.352 1360.39 1004.96 1362.14 C 1005.36 1362.22 1008.9 1362.14 1009.61 1362.12 L 1009.87 1362.97 C 1001.78 1362.69 999.982 1364.16 993.881 1370.21 C 982.939 1381.07 973.39 1393.56 962.757 1404.95 L 961.821 1404.4 C 950.434 1394.19 938.471 1383.75 927.624 1373.04 C 943.163 1362.4 958.476 1351.42 973.552 1340.13 z"/>
<path transform="translate(0,0)" fill="rgb(193,28,42)" d="M 1119.2 1280.38 C 1121.33 1285.54 1119.91 1360.11 1120.92 1373.48 L 1084.89 1403.63 C 1081.11 1405.97 1061.38 1404.84 1055.48 1404.72 C 1063.58 1403.65 1074.7 1404.1 1083.09 1404.17 C 1073.39 1391.16 1057.37 1374.67 1046.07 1363.24 C 1034.01 1363.37 1021.94 1363.28 1009.87 1362.97 L 1009.61 1362.12 C 1022.4 1362.24 1035.14 1362.53 1047.91 1361.81 C 1056.77 1356.23 1064.8 1349.79 1072.98 1343.29 C 1073.06 1331.45 1072.89 1319.4 1072.83 1307.54 C 1087.81 1299.35 1104.21 1287.68 1119.2 1280.38 z"/>
<path transform="translate(0,0)" fill="rgb(242,154,156)" d="M 963.861 1248.29 C 976.136 1261.07 987.94 1274.37 1000.11 1287.03 C 991.061 1294.07 981.857 1300.92 972.51 1307.58 L 971.876 1307.05 C 963.475 1300.29 936.877 1283.63 926.978 1279.69 C 935.256 1274.19 952.196 1257.81 959.805 1250.66 L 963.861 1248.29 z"/>
<path transform="translate(0,0)" fill="rgb(239,135,137)" d="M 1084.46 1248.71 L 1088.63 1251.91 C 1097.4 1260.67 1112.23 1272.8 1119.2 1280.38 C 1104.21 1287.68 1087.81 1299.35 1072.83 1307.54 C 1064.52 1300.06 1055.77 1293.08 1046.63 1286.63 C 1059 1274.72 1072.53 1261.06 1084.46 1248.71 z"/>
<path transform="translate(0,0)" fill="rgb(239,135,137)" d="M 927.624 1373.04 C 926.857 1366.84 925.87 1282.52 926.978 1279.69 C 936.877 1283.63 963.475 1300.29 971.876 1307.05 L 972.51 1307.58 C 972.908 1314.69 972.372 1335 973.552 1340.13 C 958.476 1351.42 943.163 1362.4 927.624 1373.04 z"/>
<path transform="translate(0,0)" fill="rgb(22,168,100)" d="M 720.774 1283.08 C 730.751 1290.21 741.809 1303.49 751.926 1311 C 753.487 1314.96 754.668 1366.79 753.51 1371.63 C 744.267 1379.39 734.275 1393.01 725.766 1401.97 C 698.065 1399.46 686.952 1402.89 663.969 1386.43 C 672.996 1379.66 676.851 1368.52 681.962 1364.62 C 678.5 1358.8 679.722 1354.66 672.372 1345.01 L 680.528 1323.05 C 674.499 1315.79 669.648 1310.37 663.079 1303.59 C 686.65 1281.65 690.943 1290.18 720.774 1283.08 z"/>
<path transform="translate(0,0)" fill="rgb(17,114,63)" d="M 703.264 1366.95 C 708.928 1361.69 712.979 1357.78 718.125 1352.05 C 723.276 1355.1 748.581 1369.75 753.51 1371.63 C 744.267 1379.39 734.275 1393.01 725.766 1401.97 C 698.065 1399.46 686.952 1402.89 663.969 1386.43 C 672.996 1379.66 676.851 1368.52 681.962 1364.62 C 689.19 1365.25 696.099 1365.76 703.264 1366.95 z"/>
<path transform="translate(0,0)" fill="rgb(17,96,52)" d="M 751.926 1311 C 753.487 1314.96 754.668 1366.79 753.51 1371.63 C 748.581 1369.75 723.276 1355.1 718.125 1352.05 C 717.399 1345.47 717.241 1337.84 716.953 1331.14 C 723.671 1327.09 746.127 1312.87 751.926 1311 z"/>
<path transform="translate(0,0)" fill="rgb(134,206,163)" d="M 663.079 1303.59 C 686.65 1281.65 690.943 1290.18 720.774 1283.08 C 714.293 1295.39 708.292 1306.86 701.094 1318.76 C 694.808 1319.93 686.474 1321.24 680.528 1323.05 C 674.499 1315.79 669.648 1310.37 663.079 1303.59 z"/>
<path transform="translate(0,0)" fill="rgb(19,149,86)" d="M 649.376 1346.69 L 650.208 1345.29 C 653.715 1344.24 667.83 1344.91 672.372 1345.01 C 679.722 1354.66 678.5 1358.8 681.962 1364.62 C 676.851 1368.52 672.996 1379.66 663.969 1386.43 C 657.996 1379.22 652.195 1356.32 649.376 1346.69 z"/>
<path transform="translate(0,0)" fill="rgb(58,186,126)" d="M 663.079 1303.59 C 669.648 1310.37 674.499 1315.79 680.528 1323.05 L 672.372 1345.01 C 667.83 1344.91 653.715 1344.24 650.208 1345.29 L 649.376 1346.69 C 648.13 1342.12 659.754 1308.76 663.079 1303.59 z"/>
<path transform="translate(0,0)" fill="rgb(248,206,89)" d="M 304.879 1358.8 C 345.863 1315.07 517.198 1289.85 581.201 1279.33 C 580.863 1309.37 580.754 1339.41 580.875 1369.46 C 580.856 1388.39 580.284 1413.6 581.231 1432.33 C 504.953 1440.83 416.713 1458.07 344.834 1485.91 C 331.583 1491.05 319.479 1500.86 308.773 1505.5 L 308.914 1498.14 L 310.168 1470.19 C 301.107 1465.4 292.147 1460.42 283.294 1455.25 C 280.356 1460.83 275.955 1464.85 271.063 1468.79 C 268.721 1464.46 269.901 1425.86 269.551 1416.89 C 271.018 1411.25 288.165 1392.85 292.618 1387.17 C 297.046 1381.52 300.274 1382.06 306.945 1381.79 C 306.388 1376.64 306.404 1362.22 304.879 1358.8 z"/>
<path transform="translate(0,0)" fill="rgb(19,149,86)" d="M 306.945 1381.79 C 308.122 1389.69 309.104 1397.63 309.892 1405.59 C 301.251 1411.11 291.438 1416.94 283.704 1423.53 C 283.689 1429.6 283.921 1438.53 283.154 1444.31 L 283.294 1455.25 C 280.356 1460.83 275.955 1464.85 271.063 1468.79 C 268.721 1464.46 269.901 1425.86 269.551 1416.89 C 271.018 1411.25 288.165 1392.85 292.618 1387.17 C 297.046 1381.52 300.274 1382.06 306.945 1381.79 z"/>
<path transform="translate(0,0)" fill="rgb(58,186,126)" d="M 269.551 1416.89 C 289.025 1421.03 281.487 1428.64 283.154 1444.31 L 283.294 1455.25 C 280.356 1460.83 275.955 1464.85 271.063 1468.79 C 268.721 1464.46 269.901 1425.86 269.551 1416.89 z"/>
<path transform="translate(0,0)" fill="rgb(17,96,52)" d="M 283.704 1423.53 C 291.438 1416.94 301.251 1411.11 309.892 1405.59 C 310.812 1424.75 311.657 1450.94 310.168 1470.19 C 301.107 1465.4 292.147 1460.42 283.294 1455.25 L 283.154 1444.31 C 283.921 1438.53 283.689 1429.6 283.704 1423.53 z"/>
<path transform="translate(0,0)" fill="rgb(37,128,209)" d="M 454.753 1327.99 C 459.344 1329.14 474.726 1348.12 479.716 1352.8 C 481.942 1357.57 481.904 1400.53 481.149 1408.03 C 481.078 1408.74 479.653 1410.82 479.225 1411.45 C 475.639 1416.21 461.753 1435.27 458.134 1438.12 C 453.579 1437.27 431.286 1437.57 425.637 1437.57 C 424.462 1436.12 422.313 1432.86 421.159 1431.21 C 415.981 1424.11 411.018 1416.86 406.276 1409.47 C 404.306 1402.31 404.839 1377.63 404.539 1368.53 C 405.364 1360.72 414.249 1347.9 418.57 1339.86 C 421.909 1330.69 445.375 1329.8 454.753 1327.99 z"/>
<path transform="translate(0,0)" fill="rgb(24,78,147)" d="M 479.716 1352.8 C 481.942 1357.57 481.904 1400.53 481.149 1408.03 C 481.078 1408.74 479.653 1410.82 479.225 1411.45 C 474.981 1406.07 454.191 1396.45 446.973 1392.54 C 447.239 1386.34 447.058 1378.88 447.069 1372.58 C 456.662 1366.17 469.658 1358.81 479.716 1352.8 z"/>
<path transform="translate(0,0)" fill="rgb(26,97,174)" d="M 446.973 1392.54 C 454.191 1396.45 474.981 1406.07 479.225 1411.45 C 475.639 1416.21 461.753 1435.27 458.134 1438.12 C 451.002 1428.17 444.081 1419.43 436.479 1409.82 C 440.129 1403.61 444.378 1399.56 446.973 1392.54 z"/>
<path transform="translate(0,0)" fill="rgb(29,112,194)" d="M 454.753 1327.99 C 459.344 1329.14 474.726 1348.12 479.716 1352.8 C 469.658 1358.81 456.662 1366.17 447.069 1372.58 C 444.314 1368.95 439.373 1364.12 436.089 1360.11 L 454.753 1327.99 z"/>
<path transform="translate(0,0)" fill="rgb(29,112,194)" d="M 413.012 1397.27 C 414.978 1401.01 417.679 1406.59 419.768 1410.08 C 425.571 1410.15 430.684 1410.04 436.479 1409.82 C 444.081 1419.43 451.002 1428.17 458.134 1438.12 C 453.579 1437.27 431.286 1437.57 425.637 1437.57 C 424.462 1436.12 422.313 1432.86 421.159 1431.21 C 415.981 1424.11 411.018 1416.86 406.276 1409.47 C 409.826 1405.24 410.791 1402.29 413.012 1397.27 z"/>
<path transform="translate(0,0)" fill="rgb(26,97,174)" d="M 413.012 1397.27 C 414.978 1401.01 417.679 1406.59 419.768 1410.08 C 420.669 1418.02 421.338 1423.27 421.159 1431.21 C 415.981 1424.11 411.018 1416.86 406.276 1409.47 C 409.826 1405.24 410.791 1402.29 413.012 1397.27 z"/>
<path transform="translate(0,0)" fill="rgb(104,165,224)" d="M 418.57 1339.86 C 421.909 1330.69 445.375 1329.8 454.753 1327.99 L 436.089 1360.11 C 430.887 1360.24 424.138 1362.14 419.035 1363.45 C 419.074 1355.61 419.259 1347.66 418.57 1339.86 z"/>
<path transform="translate(0,0)" fill="rgb(104,165,224)" d="M 404.539 1368.53 C 407.327 1369.24 409.368 1369.13 410.42 1372.07 C 412.784 1378.69 412.691 1390.32 413.012 1397.27 C 410.791 1402.29 409.826 1405.24 406.276 1409.47 C 404.306 1402.31 404.839 1377.63 404.539 1368.53 z"/>
<path transform="translate(0,0)" fill="rgb(79,32,92)" d="M 607.928 932.143 C 667.037 913.294 740.117 897.177 802.26 891.76 C 759.02 973.806 715.157 1055.52 670.673 1136.9 L 660.071 1133.36 C 622.781 1113.06 612.141 1095.18 599.027 1056.06 C 631.346 1021.72 630.173 971.584 607.928 932.143 z"/>
<path transform="translate(0,0)" fill="rgb(251,216,124)" d="M 296.263 1300.04 L 297.216 1301.4 C 299.956 1301.81 302.402 1299.66 304.982 1298.19 C 324.9 1286.8 347.413 1278.05 369.463 1271.76 C 507.39 1232.42 652.058 1216.93 794.814 1207.85 C 870.728 1203.03 946.78 1200.71 1022.85 1200.91 C 1022.93 1210.4 1023.17 1220.31 1022.79 1229.77 C 811.847 1231 596.094 1241.17 391.104 1294.11 C 365.303 1300.78 338.993 1309.56 315.351 1321.93 C 302.321 1328.75 295.142 1336.68 293.829 1351.47 C 267.97 1325.91 296.11 1310.96 296.263 1300.04 z"/>
<path transform="translate(0,0)" fill="rgb(214,155,38)" d="M 1023.11 1230.47 C 1037.36 1228.96 1078.71 1230.5 1093.68 1230.68 C 1191.87 1232.03 1289.95 1237.93 1387.6 1248.37 C 1491.25 1259.41 1607.91 1275.09 1706.77 1311.13 C 1727.13 1318.55 1751.14 1327.83 1752.19 1352.5 C 1747.54 1356.49 1746.48 1357.22 1741.04 1360.02 C 1734.59 1342.91 1684.06 1327.77 1667.22 1322.39 C 1604.59 1302.39 1539 1291.22 1474.05 1281.82 C 1375.01 1267.71 1275.31 1258.73 1175.34 1254.92 L 1119.99 1252.65 C 1111.52 1252.29 1096.55 1251.01 1088.63 1251.91 L 1084.46 1248.71 C 1080.22 1247.52 1032.71 1248.39 1023.96 1248.29 C 1023.61 1242.38 1023.38 1236.39 1023.11 1230.47 z"/>
<path transform="translate(0,0)" fill="rgb(214,155,38)" d="M 266.553 696.975 L 289.13 696.908 C 296.096 737.821 298.64 782.06 285.776 822.082 L 382.592 971.976 C 394.262 989.989 416.171 1020.92 425.866 1038.47 C 453.537 1081.68 481.717 1124.57 510.401 1167.12 C 506.811 1169.66 491.55 1177.59 486.88 1180.16 C 482.454 1174.65 475.207 1162.64 471.134 1156.38 L 437.15 1104.28 L 305.397 902.669 C 297.812 891.14 266.325 840.8 258.744 833.868 C 272.821 806.717 273.269 769.973 272.136 739.919 C 270.848 725.732 269.456 710.907 266.553 696.975 z"/>
<path transform="translate(0,0)" fill="rgb(79,32,92)" d="M 498.806 984.721 C 499.508 1023.54 516.659 1057.31 556.879 1065.84 C 557.388 1100.49 551.048 1127.84 525.991 1153.73 C 521.208 1158.66 515.99 1163.14 510.401 1167.12 C 481.717 1124.57 453.537 1081.68 425.866 1038.47 C 432.319 1033.76 440.992 1025.38 447.634 1020.02 C 463.535 1007.18 480.729 994.294 498.806 984.721 z"/>
<path transform="translate(0,0)" fill="rgb(22,168,100)" d="M 1044.46 945.111 C 1047.76 958.761 1066.28 968.295 1068.74 987.568 C 1068.84 998.61 1069.05 1009.65 1069.36 1020.69 C 1060.79 1032.49 1051.88 1044.03 1043.37 1055.86 C 1033.65 1055.97 1012.84 1056.64 1003.78 1055.32 C 998.613 1052.53 980.874 1023.84 975.958 1021.95 C 976.716 1011.35 975.9 992.645 976.292 980.43 C 982.604 970.473 994.441 955.58 1001.84 946.07 C 1008.42 946.024 1041.37 946.65 1044.46 945.111 z"/>
<path transform="translate(0,0)" fill="rgb(233,42,50)" d="M 255.866 1007.75 C 260.826 1007.68 261.81 1006.9 265.858 1009.05 C 267.334 1012.15 267.473 1012.54 268.325 1015.87 C 275.719 1033.51 281.852 1060.66 290.327 1077.38 C 279.416 1087.44 268.35 1097.34 257.134 1107.06 C 258.033 1120.7 264.201 1147.39 263.571 1159.67 C 262.335 1172 258.994 1180.69 256.997 1191.91 C 250.962 1193.26 246.096 1193.43 239.943 1193.82 C 231.739 1179.33 226.893 1098.81 224.276 1077.48 C 223.714 1072.9 246.734 1018.5 249.845 1010.1 C 250.708 1007.77 253.68 1008 255.866 1007.75 z"/>
<path transform="translate(0,0)" fill="rgb(239,135,137)" d="M 268.325 1015.87 C 275.719 1033.51 281.852 1060.66 290.327 1077.38 C 279.416 1087.44 268.35 1097.34 257.134 1107.06 C 253.03 1093.72 249.018 1085.22 242.599 1072.93 C 250.153 1054.23 258.097 1032.93 268.325 1015.87 z"/>
<path transform="translate(0,0)" fill="rgb(134,206,163)" d="M 930.617 951.184 C 945.627 933.164 963.954 919.1 979.454 898.596 L 1001.84 946.07 C 994.441 955.58 982.604 970.473 976.292 980.43 C 975.9 992.645 976.716 1011.35 975.958 1021.95 L 930.549 1050.1 C 931.952 1017.56 929.114 983.116 930.617 951.184 z"/>
<path transform="translate(0,0)" fill="rgb(214,155,38)" d="M 562.799 905.657 C 585.143 905.879 595.495 914.56 607.928 932.143 C 630.173 971.584 631.346 1021.72 599.027 1056.06 C 612.141 1095.18 622.781 1113.06 660.071 1133.36 C 653.216 1136.81 641.239 1132.41 635.093 1128.85 C 606.685 1112.4 592.977 1086.33 584.268 1055.63 C 621.992 1010.09 616.374 936.665 562.799 905.657 z"/>
<path transform="translate(0,0)" fill="rgb(221,34,44)" d="M 256.997 1191.91 C 258.994 1180.69 262.335 1172 263.571 1159.67 C 269.72 1164.64 296.067 1182.28 303.413 1186.15 C 303.453 1201.96 297.022 1229.49 295.578 1247.07 C 294.84 1249.98 295.223 1250.16 293.44 1252.08 C 289.992 1252.02 285.641 1252.27 282.115 1252.37 C 268.413 1233.17 254.325 1212.32 239.943 1193.82 C 246.096 1193.43 250.962 1193.26 256.997 1191.91 z"/>
<path transform="translate(0,0)" fill="rgb(174,24,33)" d="M 256.997 1191.91 C 269.536 1209.8 283.377 1229.18 295.578 1247.07 C 294.84 1249.98 295.223 1250.16 293.44 1252.08 C 289.992 1252.02 285.641 1252.27 282.115 1252.37 C 268.413 1233.17 254.325 1212.32 239.943 1193.82 C 246.096 1193.43 250.962 1193.26 256.997 1191.91 z"/>
<path transform="translate(0,0)" fill="rgb(174,24,33)" d="M 290.327 1077.38 C 294.063 1095.09 296.264 1119.87 298.374 1138.35 C 299.95 1152.15 302.908 1173.09 303.413 1186.15 C 296.067 1182.28 269.72 1164.64 263.571 1159.67 C 264.201 1147.39 258.033 1120.7 257.134 1107.06 C 268.35 1097.34 279.416 1087.44 290.327 1077.38 z"/>
<path transform="translate(0,0)" fill="rgb(19,149,86)" d="M 975.958 1021.95 C 980.874 1023.84 998.613 1052.53 1003.78 1055.32 C 1000.38 1058.12 982.465 1096.85 979.668 1103.55 C 969.559 1092.46 959.345 1081.46 949.03 1070.56 C 943.788 1064.98 934.848 1055.99 930.549 1050.1 L 975.958 1021.95 z"/>
<path transform="translate(0,0)" fill="rgb(233,42,50)" d="M 567.135 932.486 L 568.932 932.029 C 574.736 935.849 585.379 950.261 590.186 956.431 C 593.712 964.464 596.769 1008.87 597.361 1019.24 C 592.71 1026.2 584.383 1041.75 579.255 1046.02 C 569.678 1045.85 556.053 1048.99 546.018 1048.09 C 543.175 1047.84 543.503 1047.28 541.799 1045.03 C 535.461 1037.56 527.037 1028.22 522.932 1019.4 C 519.524 1006.79 518.435 987.743 517.891 974.61 C 516.984 966.288 527.408 949.787 531.629 940.919 C 536.292 934.754 558.98 933.486 567.135 932.486 z"/>
<path transform="translate(0,0)" fill="rgb(174,24,33)" d="M 590.186 956.431 C 593.712 964.464 596.769 1008.87 597.361 1019.24 C 592.71 1026.2 584.383 1041.75 579.255 1046.02 C 573.082 1040.33 560.949 1026.05 557.973 1018.51 C 561.468 1013.93 564.909 1008.54 568.149 1003.72 C 568.07 995.638 567.145 985.904 566.87 977.411 C 575.415 969.645 581.41 965.143 590.186 956.431 z"/>
<path transform="translate(0,0)" fill="rgb(221,34,44)" d="M 538.186 1019.63 C 545.993 1020.82 550.31 1020.66 557.973 1018.51 C 560.949 1026.05 573.082 1040.33 579.255 1046.02 C 569.678 1045.85 556.053 1048.99 546.018 1048.09 C 543.175 1047.84 543.503 1047.28 541.799 1045.03 C 542.708 1039.88 539.29 1025.1 538.186 1019.63 z"/>
<path transform="translate(0,0)" fill="rgb(239,135,137)" d="M 531.629 940.919 C 536.292 934.754 558.98 933.486 567.135 932.486 C 563.527 940.45 557.333 954.848 553.034 961.742 C 546.767 962.275 539.886 962.665 533.996 964.964 C 532.537 961.241 531.946 945.977 531.629 940.919 z"/>
<path transform="translate(0,0)" fill="rgb(221,34,44)" d="M 531.629 940.919 C 531.946 945.977 532.537 961.241 533.996 964.964 C 529.823 974.467 527.961 978.383 525.51 988.545 L 523.464 982.689 C 521.984 978.518 521.264 977.692 517.891 974.61 C 516.984 966.288 527.408 949.787 531.629 940.919 z"/>
<path transform="translate(0,0)" fill="rgb(174,24,33)" d="M 529.004 1007.21 C 533.426 1012.26 534.724 1013.76 538.186 1019.63 C 539.29 1025.1 542.708 1039.88 541.799 1045.03 C 535.461 1037.56 527.037 1028.22 522.932 1019.4 C 526.001 1014.62 526.887 1012.34 529.004 1007.21 z"/>
<path transform="translate(0,0)" fill="rgb(251,216,124)" d="M 242.227 645.673 C 249.656 645.404 257.089 645.207 264.522 645.081 C 278.822 660.501 284.13 676.486 289.13 696.908 L 266.553 696.975 C 269.456 710.907 270.848 725.732 272.136 739.919 C 263.373 740.421 213.635 743.677 208.616 746.487 C 208.232 748.571 207.884 750.43 207.593 752.54 C 203.922 732.518 212.335 643.16 242.227 645.673 z"/>
<path transform="translate(0,0)" fill="rgb(237,184,53)" d="M 242.227 645.673 C 249.656 645.404 257.089 645.207 264.522 645.081 C 278.822 660.501 284.13 676.486 289.13 696.908 L 266.553 696.975 C 262.593 677.67 256.465 659.707 242.227 645.673 z"/>
<path transform="translate(0,0)" fill="rgb(17,114,63)" d="M 283.294 1455.25 C 292.147 1460.42 301.107 1465.4 310.168 1470.19 L 308.914 1498.14 C 307.152 1498.21 300.839 1498.55 299.703 1497.74 C 288.815 1489.94 281.207 1477.99 271.063 1468.79 C 275.955 1464.85 280.356 1460.83 283.294 1455.25 z"/>
</svg>